<?xml version="1.0" encoding="UTF-8"?>
<svg version="1.1" viewBox="0 0 1600 1600" width="1280" height="1280" xmlns="http://www.w3.org/2000/svg">
<path transform="translate(236 43.8)" d="m0 0c0.91 0.01 1.81 0.01 2.75 0.02 23.8 0.37 43.1 4.78 60.4 22.2 6.89 7.35 10.7 17.1 15 26.1 4.91 10.3 10 21 18.3 29.2 1.73 1.77 1.73 1.77 1.73 3.77h2c1.12 1.12 2.24 2.24 3.34 3.38 14.2 13.8 31.5 21.2 49.9 27.5 18.5 6.39 35.5 13.5 50.8 26.1 1.08 0.86 2.16 1.72 3.24 2.59 12.6 10.2 21.7 21.6 30.8 35 5.13 7.46 10.4 14.1 16.9 20.4 0.79 0.78 1.57 1.56 2.37 2.36 11 10.5 24.2 17.7 37.6 24.6 11.6 6.09 11.6 6.09 14.3 11.8 1.26 5.87 0.03 10.6-3.08 15.6-2.69 3.43-5.93 5.12-9.98 6.51-8.03 0.15-15.5-3.76-22.4-7.5-0.82-0.44-1.64-0.88-2.48-1.33-11.2-6.08-21.5-13.1-31.2-21.3-2.24-1.93-2.24-1.93-5.18-3.81v-2c-0.81-0.32-0.81-0.32-1.65-0.65-3.17-1.83-5.46-4.3-7.91-6.98-0.52-0.56-1.05-1.13-1.59-1.72-4.96-5.54-9.07-11.6-13.2-17.7-18.4-27.6-42.1-42-72.8-52.4-16.3-5.53-30.9-12.5-44.8-22.6-0.89-0.65-1.78-1.29-2.69-1.96-21.6-16.5-36.4-38.9-46.4-63.9-2.95-7.09-6.89-12.9-14.2-15.9-6.59-2.72-12.9-4.06-20-4.74-1.33-0.13-1.33-0.13-2.69-0.26-1.01-0.09-1.01-0.09-2.04-0.19 0.82 27.8 4.72 53.8 17 79 0.6 1.23 0.6 1.23 1.21 2.49 2.89 5.57 6.61 10.6 10.3 15.6 2.09 2.86 4.04 5.62 5.47 8.87h2c1.38 1.47 1.38 1.47 3 3.5 16.7 19.5 41.8 29.5 65.2 38.2 19.1 7.12 36 15.4 51.8 28.3 0.57 0.44 1.13 0.89 1.71 1.34 1.47 1.18 2.89 2.41 4.29 3.66v2c0.8 0.3 0.8 0.3 1.62 0.6 3.47 2.04 5.88 4.87 8.57 7.84 0.87 0.94 0.87 0.94 1.76 1.91 3.28 3.61 6.44 7.28 9.49 11.1 5.31 6.62 11.1 12.8 17 18.9 1.33 1.4 2.64 2.82 3.96 4.24 15.6 16.5 36.6 27.5 57.6 35.4 1.07 0.41 1.07 0.41 2.16 0.83 15.5 5.82 31.7 8.96 47.8 12.2-0.05-1.33-0.05-1.33-0.1-2.68-0.49-22.2 5.21-43.6 20.8-60.2 16.6-15.7 35.9-21.8 58-25.5 19.3-3.31 35.8-9.72 53.2-18.6 34.1-17.5 70.3-25.5 108-27.6 43.2-2.46 78.8-16 116-37.4 74.4-42.7 155-75 375-127 0.94-0.13 1.88-0.26 2.85-0.39 11.5-1.58 22.9-1.83 34.5-1.92 0.72-0.01 1.45-0.02 2.2-0.03 2.1-0.03 4.19-0.03 6.29-0.02 1.82-0.01 1.82-0.01 3.69-0.01 5.27 0.56 9.17 2 12.9 5.87 3.98 8.92 0.97 20-0.62 29.2-0.12 0.66-0.23 1.33-0.34 2.01-3.54 20.6-9.64 37.2-24.5 52.2-0.55 0.62-1.1 1.25-1.66 1.89-7.35 8.06-17 12.8-27 16.5-0.83 0.3-1.65 0.6-2.5 0.91-8.2 2.93-16.5 5.26-24.9 7.48-3.77 0.99-7.53 2-11.3 3.02-2.02 0.54-4.04 1.08-6.06 1.62-34.7 9.3-69.2 19-104 29.6-0.8 0.25-1.61 0.5-2.45 0.75-21.4 6.58-42.6 13.5-63.6 21.2-1.26 0.46-2.53 0.93-3.8 1.39-20 7.3-39.7 15.2-59.2 23.6-1.19 0.52-2.38 1.03-3.6 1.56-29.4 12.8-58.4 26.8-86.4 42.4-0.96 0.53-1.92 1.07-2.91 1.62-13.9 7.77-27.4 15.8-40.1 25.4-23.4 17.9-49 26-78.1 27.9-19.3 1.3-37.5 5.65-52.9 18.1v2c0.68 0.29 1.36 0.58 2.06 0.88 15.8 6.95 27.3 15.7 36.9 30.1 2.4 1.09 2.4 1.09 5.26 1.91 1.09 0.34 2.18 0.69 3.3 1.05 1.18 0.36 2.36 0.73 3.57 1.1 13.3 4.28 26.1 9.28 38.9 14.9 0.84 0.37 1.68 0.74 2.55 1.12 26.2 11.7 51 27.1 73.4 44.9 0.82 0.64 1.64 1.27 2.48 1.93 15.5 12.2 30 25.5 44 39.4 0.65 0.65 1.3 1.29 1.96 1.95 4.38 4.4 8.5 8.97 12.5 13.7 0.46 0.52 0.91 1.04 1.38 1.58 7.96 9.15 15.4 18.7 22.6 28.4 0.55 0.73 1.09 1.46 1.65 2.21 18.1 24.3 33.9 50.6 47.4 77.8 0.51 1.02 1.02 2.03 1.54 3.08 2.45 5.41 3.49 10.2 1.46 15.9-2.55 4.1-5.44 7.23-10 9-2.76 0.41-2.76 0.41-5.81 0.5-0.99 0.05-1.99 0.1-3.02 0.16-4.65-0.97-7.13-3.04-10.2-6.66-2.5-4.01-4.55-8.19-6.62-12.4-1.23-2.44-2.47-4.88-3.7-7.33-0.31-0.61-0.62-1.22-0.94-1.85-15-29.6-33.6-57.9-55.4-82.8-1.32-1.52-2.59-3.07-3.86-4.63-6.63-8.05-13.8-15.5-21.2-22.8-0.5-0.49-1-0.99-1.51-1.5-38.1-38.1-85-65.9-136-83.6-0.29 0.97-0.58 1.93-0.88 2.93-10 32.2-37.4 51.5-65.1 68.1-0.6 0.36-1.2 0.73-1.83 1.1-6.94 4.12-13 6.41-21.2 4.9-4.51-2.05-7.09-4.73-9.3-9.08-1.73-4.78-1.23-9.26 0.49-13.9 3.04-5.44 8.64-7.97 13.9-10.9 3.36-1.91 6.64-3.93 9.91-5.96 0.68-0.42 1.35-0.84 2.04-1.27 6.66-4.2 12.8-8.9 19-13.9 1.02-0.81 2.04-1.62 3.08-2.46 8.27-7.18 15.4-15.9 16.9-27 0.4-7.43-1.34-12.9-6-18.8-7.05-7.29-16.4-11.2-25.7-14.8-1.01-0.42-2.01-0.84-3.04-1.27-5.5-2.24-5.5-2.24-11.3-2.3-0.96 0.52-1.92 1.04-2.92 1.57-0.7 0.35-1.4 0.7-2.12 1.07-1.68 0.84-3.34 1.69-5 2.56-30.3 15.8-67.6 29.4-102 19.4-10.1-3.4-18.7-8.27-27-15-0.84-0.65-1.69-1.3-2.56-1.98-2.33-1.93-4.23-3.91-6.18-6.21-0.6-0.69-1.19-1.39-1.8-2.1-0.48-0.57-0.96-1.13-1.46-1.71-1.78-1.78-4.47-1.6-6.89-1.95-1.25-0.18-2.5-0.37-3.79-0.56-0.67-0.1-1.34-0.2-2.04-0.3-26.7-4.02-54.6-9.8-78.7-22.5-6.34-3.33-10.8-2.66-17.7-1.03-1.61 0.35-1.61 0.35-3.25 0.71-34.5 7.88-67.3 20-98.7 36.2-1.53 0.78-1.53 0.78-3.1 1.59-16 7.83-16 7.83-26.3 21.8-1.79 6.72-0.95 13 2.46 19 8.01 12 23.2 17.1 36.7 20.2 0.67 0.15 1.34 0.31 2.03 0.47 13.5 2.86 27.2 3.77 40.9 3.88 1.62 0.01 3.24 0.05 4.87 0.1 10.9 0.65 10.9 0.65 20.4-3.92 1.08-1.2 2.13-2.44 3.12-3.72l2.26-2.26c0.57-0.61 1.15-1.23 1.74-1.87 5.51-5.55 10.9-9.72 19-9.87 6.17 0.77 8.81 3.46 12.6 8.03 2.78 3.96 3.03 8.28 2.38 13-2.86 5.42-6.98 9.39-11.7 13.2-2.33 1.61-2.33 1.61-3.26 3.81 0.55 0.25 1.09 0.51 1.65 0.77 2.81 1.47 5.39 3.19 8.04 4.92 30.9 19.3 70.4 22.5 106 22.6 0.94 0 1.89 0 2.86 0.01 15.7 0.01 31-0.88 46.6-3.26-0.82-1.01-0.82-1.01-1.67-2.04-0.72-0.89-1.45-1.78-2.19-2.7-0.72-0.88-1.44-1.76-2.18-2.67-2.97-3.93-5.06-7.5-4.89-12.6 0.98-5.39 3.87-9.37 7.93-13 4.26-2.58 8.15-2.73 13-2 11.2 3.82 20.3 17.9 27 27 0.89 1.15 1.78 2.3 2.67 3.44 7.8 10.1 14.7 20.6 21.3 31.6 0.38 0.6 0.75 1.2 1.13 1.82 11.1 18 31 50.4 27.9 72.2-2.08 5.01-4.88 8.88-10 11-4.83 1.4-9.44 1.16-14-1-4.23-3.55-6.39-7.34-8.43-12.4-0.3-0.71-0.6-1.42-0.91-2.15-1.88-4.48-3.64-9.01-5.4-13.5-7.33-18.6-16.8-36-27.3-52.9-9.45 0.84-18.8 2.2-28.2 3.54-14.5 2.04-28.6 2.7-43.2 2.71h-3.04c-16.4-0.02-32.3-0.68-48.5-3.25-1.09-0.17-2.18-0.34-3.3-0.52-27.8-4.53-58.5-11.9-80.4-30.8-0.76-0.55-1.52-1.1-2.31-1.67-3.29 1.1-3.61 1.49-5.41 4.25-0.67 1.03-0.67 1.03-1.35 2.07-0.47 0.74-0.94 1.48-1.42 2.24-0.49 0.77-0.98 1.53-1.48 2.31-4.68 7.45-8.58 15.2-12.3 23.1-1.21 2.57-2.44 5.13-3.68 7.69-0.52 1.09-1.04 2.19-1.58 3.32-2.48 4.28-4.98 7.4-9.74 8.99-6.83 0.73-11.5 0.27-17-4-3.49-4.01-4.72-8.18-4.43-13.4 2.1-12.3 9.55-23.7 15.4-34.6 0.67-1.22 1.33-2.44 1.99-3.66 1.33-2.45 2.67-4.9 4.01-7.34-0.99 0.05-0.99 0.05-2 0.11-31.7 0.86-67.3-7.05-91.5-28.6-2.7-2.68-5.15-5.56-7.54-8.52-6.18 1.54-10.9 5.03-16.1 8.56-0.94 0.64-1.88 1.27-2.84 1.92-6.84 4.64-13.5 9.43-20 14.5-1.12 0.86-2.24 1.71-3.37 2.57-7.17 5.5-13.9 11.3-20.5 17.5-2.26 2.13-4.57 4.18-6.93 6.2-4.74 4.13-9.2 8.52-13.6 13l-2.54 2.54c-5.05 5.1-9.8 10.2-14.2 15.9-1.76 2.25-3.63 4.33-5.56 6.44-5.66 6.29-10.7 13.1-15.7 19.9-1.28 1.68-2.57 3.36-3.86 5.03-16.3 21.2-29.9 44.5-42.7 68-0.42 0.77-0.84 1.54-1.27 2.33-38 69.6-60.8 148-73.7 232-0.24 1.62-0.24 1.62-0.49 3.27-1.76 12-2.98 24-4.13 36.1-0.12 1.3-0.25 2.6-0.37 3.93-1.4 15.3-2.17 30.4-2.17 45.8-0.01 1.59-0.01 3.18-0.01 4.77-0.01 3.31-0.01 6.63-0.01 9.94 0 3.33-0.01 6.66-0.02 9.99-0.08 20.5 0.3 40.8 2.2 61.2 0.08 0.84 0.16 1.67 0.23 2.54 0.45 4.83 0.96 9.64 1.53 14.5 0.08 0.71 0.16 1.42 0.25 2.16 7.17 61.2 22.3 122 48 178 0.52 1.13 1.04 2.27 1.57 3.44 7.55 16.4 16 32.1 25.4 47.6 0.49 0.8 0.97 1.59 1.46 2.41 5.15 8.49 10.6 16.7 16.5 24.6 1.1 1.48 1.1 1.48 2.22 2.99 16 21.6 33.5 42.3 53.8 60 0.52 0.46 1.03 0.92 1.56 1.39 55 49 128 82.2 200 92.6 1.17 0.18 1.17 0.18 2.35 0.36 29.9 4.46 61.7 2.71 91.3-2.97 2.83-0.46 5.54-0.54 8.39-0.39-3.59-4.36-7.31-8.38-11.6-12.1-5.69-5.07-11.1-10.4-16.5-15.8-1.39-1.38-1.39-1.38-2.81-2.78-6.15-6.14-11.7-12.6-17.1-19.4-1.01-1.23-2.02-2.46-3.04-3.69-5.64-6.87-10.9-13.9-16-21.2-0.8-1.17-0.8-1.17-1.63-2.36-9.21-13.6-9.21-13.6-9.37-20.7 1.73-6.02 4.71-9.65 10-13 4.14-1.95 7.66-2.43 12.1-1.13 7.64 3.44 11.6 11.1 15.9 18 7.52 11.6 16.4 22.1 25.5 32.4 2.09 2.37 4.13 4.77 6.17 7.17 2.81 3.24 5.77 6.1 9.16 8.74 0.72 0.6 1.44 1.19 2.18 1.81v2c0.6 0.27 1.2 0.53 1.81 0.81 2.24 1.21 3.54 2.39 5.26 4.25 4.14 4.26 8.68 7.94 13.3 11.6 1.73 1.38 3.45 2.78 5.17 4.18 3.78 3.08 7.6 6.11 11.4 9.11 0.59 0.46 1.17 0.91 1.77 1.38 38.7 30 94.6 33.6 142 33.9 1.67 0.01 3.33 0.02 5 0.04 16.2 0.17 32-1.87 47.6-6.34 1.54-0.43 1.54-0.43 3.11-0.88 13.3-3.91 25.9-9.53 38.4-15.3 0.79-0.37 1.58-0.73 2.39-1.1 0.68-0.32 1.36-0.64 2.06-0.96 4.91-1.86 9.42-1.22 14.2 0.82 4.1 2.32 6.37 4.91 7.74 9.44 0.77 5.05 0.62 8.78-1.68 13.4-4.21 4.78-8.9 7.67-14.6 10.3-0.73 0.34-1.46 0.68-2.21 1.02-22.4 10.2-46 17.9-70.5 21.3-0.66 0.09-1.32 0.19-2 0.29-9.27 1.14-18.7 0.91-28 0.9h-2.83c-15.2-0.02-30.1-0.56-45.2-2.19-1.45-0.14-1.45-0.14-2.93-0.29-23.4-2.36-46.9-6.64-69.1-14.7-0.66-0.24-1.33-0.48-2.01-0.73-23.4-8.64-23.4-8.64-28-13.3-6.94 0.47-13.4 2.01-20.1 3.81-8.37 2.17-16.7 4.02-25.2 5.44-0.89 0.15-1.78 0.3-2.7 0.46-16.7 2.66-33.2 3.67-50 3.6h-2.98c-15.5-0.05-30.6-0.8-46-3.31-1.64-0.25-1.64-0.25-3.33-0.5-18-2.74-35.3-7.11-52.7-12.5-0.82-0.25-1.65-0.5-2.5-0.75-46.3-13.9-92.6-37.4-130-67.2-1.39-1.09-1.39-1.09-2.81-2.21-2.41-1.91-4.8-3.85-7.19-5.79-0.86-0.69-1.73-1.39-2.62-2.1-11-8.82-21.1-18.4-31-28.4-1.53-1.52-3.06-3.04-4.6-4.56-6.36-6.33-12.2-12.9-17.7-20-1.55-1.84-3.12-3.67-4.68-5.5-61.2-73.5-96.2-169-116-448 5.5-59.7 16.8-118 35.1-175 0.35-1.08 0.69-2.16 1.04-3.27 13.8-43.4 32.1-86.4 55-126 0.42-0.72 0.83-1.44 1.26-2.18 5.29-9.19 10.8-18.2 16.6-27.1 1.15-1.75 2.29-3.51 3.43-5.27 15.3-23.4 32.8-45.4 51.6-66.1 1.42-1.57 2.82-3.14 4.22-4.73 8.1-9.16 16.6-18 26-26 2.24-1.92 4.39-3.92 6.56-5.91 5.6-5.04 11.5-9.66 17.4-14.3 1.98-1.53 3.95-3.07 5.91-4.62 7.52-5.9 15.2-11.5 23.2-16.7 0.84-0.55 1.68-1.1 2.54-1.66 3.78-2.44 7.54-4.73 11.6-6.7 6.65-2.96 6.65-2.96 10.8-8.56 0.48-3.02 0.48-3.02 0.61-6.12 0.91-10.9 8.29-21.9 16.3-29.2 0.54-0.5 1.07-1.01 1.61-1.53 5.43-5 11.3-8.57 17.7-12.1 1.09-0.6 2.18-1.2 3.3-1.82 29.1-15.8 64-34 97.4-38.6-2.68-2.69-5.37-5.38-8.08-8.05-8.34-8.26-16-16.6-23.1-26-3.4-4.45-7.03-8.62-10.8-12.7-2-2.22-2-2.22-3.79-4.63-2.91-3.4-6.24-5.89-9.84-8.53-0.72-0.53-1.44-1.06-2.18-1.6-11.6-8.49-23.5-13.8-37-18.5-23.9-8.38-45.8-18.2-65.2-34.9-0.8-0.69-1.6-1.39-2.43-2.11-2.56-2.26-5.07-4.56-7.57-6.89-0.88-0.82-1.77-1.64-2.68-2.49-35.1-33.7-47.1-81.7-48.4-129-0.24-22.9-0.24-22.9 6.22-31.5 6.19-4.71 14.2-4.52 21.8-4.44zm1063 40.4c-1.33 0.19-1.33 0.19-2.69 0.38-2.95 0.43-5.9 0.86-8.85 1.29-1.02 0.15-2.04 0.3-3.09 0.46-17.6 2.62-35.2 5.83-52.7 9.36-1.14 0.22-2.29 0.45-3.46 0.69-14.6 2.93-29 6.14-43.4 9.68 0 4.38 0.9 6.28 2.76 10.2 4.8 10.6 7.4 22.2 8.24 33.8 3.19 1.03 5.14 0.94 8.35 0.03 0.85-0.24 1.7-0.47 2.58-0.72 1.39-0.4 1.39-0.4 2.8-0.81 0.96-0.27 1.93-0.54 2.92-0.82 3.14-0.89 6.28-1.78 9.42-2.68 4.29-1.22 8.59-2.42 12.9-3.63 1.05-0.3 2.11-0.6 3.19-0.9 8.07-2.27 16.2-4.34 24.3-6.34 13.4-3.38 26.4-7.43 36.6-17.1 0.64-0.58 1.27-1.16 1.92-1.76 7.4-7.53 11.8-19.7 12.2-30.2-0.04-0.66-0.08-1.32-0.13-2-4.69-0.17-9.2 0.48-13.8 1.14zm-157 33.1c-0.95 0.28-1.9 0.57-2.88 0.87-1.03 0.32-2.05 0.65-3.1 0.98-1.08 0.33-2.15 0.66-3.25 1-3.49 1.08-6.96 2.17-10.4 3.26-2.37 0.74-4.74 1.48-7.12 2.22-25.6 7.43-25.6 7.43-50.3 17.5 1.15 3.05 2.47 5.89 4 8.75 2.44 4.88 4.62 9.93 3.59 15.5-1.38 4.07-3.07 7.18-6.59 9.79-4.96 2.43-9.72 2.37-15 1-4.75-2.14-6.22-4.74-8.43-9.37-3.54-6.99-3.54-6.99-9.57-11.6-5.5 0.34-9.88 1.99-14.8 4.25-0.73 0.32-1.46 0.65-2.22 0.99-2.36 1.05-4.72 2.13-7.08 3.2-1.64 0.73-3.27 1.47-4.91 2.21-18.3 8.24-36.3 16.8-54 26.4-1.27 0.68-1.27 0.68-2.58 1.38-9.52 5.11-19 10.3-28.2 15.8-16.1 9.57-32.7 18-50.2 24.8 0.96 11.2 6.83 21.5 15.2 28.9 4.25 3.86 4.25 3.86 9.6 4.88 3.55-0.91 6.37-2.23 9.6-3.96 0.9-0.48 0.9-0.48 1.83-0.97 1.3-0.68 2.59-1.37 3.89-2.06 12.4-6.64 25-12.8 37.9-18.7 2.1-0.95 4.2-1.92 6.3-2.91 1.64-0.76 3.3-1.49 4.98-2.16 2.19-0.88 2.19-0.88 4.71-3.09 1.05-3.13 1.17-6.16 1.26-9.44 0.45-9.96 0.45-9.96 3.74-14.6v-2c5.74-2.97 10.6-3.61 17-3 3 1.5 3 1.5 5 3h2c1.5 3.62 2.79 7.28 4 11 3.49-0.6 6.52-1.51 9.76-2.9 0.92-0.39 1.84-0.78 2.79-1.18 1-0.43 1.99-0.86 3.02-1.29 45.1-19 91.3-36.5 138-49.9 1.13-0.32 2.26-0.65 3.42-0.98 0.97-0.27 1.94-0.54 2.93-0.83 2.85-1 5.18-2.24 7.67-3.94 3.75-8.33-0.46-20.3-3.47-28.4-2.2-5.22-4.63-10.4-8.53-14.6-3.73-1.13-6.19-0.95-9.89 0.2zm-313 129c-11 1.77-21.9 2.62-33 3.35-35.4 2.34-68 9.18-99.6 25.8-1.67 0.86-3.38 1.66-5.09 2.44-4.59 2.21-7.95 3.93-10.3 8.61-0.83 2.37-0.83 2.37-1.44 4.87-0.22 0.82-0.44 1.63-0.66 2.47-4.46 20.8-1.68 41.5 9.66 59.5 3.63 5.82 3.63 5.82 8.92 9.9 7.64 0.37 17.2-10.2 22.9-14.8 9.96-8.18 19.8-15.9 31.5-21.4 3.41-1.61 3.41-1.61 5.63-4.54 0.03-2.56-0.37-4.78-0.91-7.29-1.8-10-3.48-23.7 1.93-32.8 3.77-3.77 7.04-5.14 12.3-5.25 5.49 0.08 8.89 1.65 13 5.31 3.08 5.36 2.74 11.3 2.62 17.4-0.08 5.31 0.98 10.4 2.06 15.6 26.7 0.91 52.1-4.84 73.6-21.5 1.79-1.55 1.79-1.55 1.44-4.54-1.96-2.14-1.96-2.14-4.5-4.37-11-10.7-17.5-25-21.5-39.6-2.97 0-5.71 0.43-8.64 0.91zm-191 48.7c-1.23 0.24-1.23 0.24-2.48 0.48-0.86 0.18-1.73 0.36-2.62 0.55-0.89 0.18-1.79 0.36-2.7 0.55-15.9 3.43-30.3 8.91-39.9 22.8-6.21 11.2-7.61 25-4.93 37.5 3.04 9.87 8.04 17.1 16.9 22.5 9.21 4.55 18.2 6.39 28.4 6.37h2.91c11.6-0.19 22.1-2.62 32.6-7.37-0.72-1.33-1.45-2.67-2.18-4-0.41-0.74-0.81-1.49-1.23-2.25-1.29-2.23-2.63-4.36-4.03-6.52-2.6-4.13-4.46-8.36-6.18-12.9-0.45-1.17-0.45-1.17-0.91-2.37-6.79-18.2-7.22-35.7-5.47-54.9-3.03-0.94-5.16-1-8.27-0.4z" fill="#000100"/>
<path transform="translate(1302 692)" d="m0 0c3.41 2.07 6.84 4.02 10.4 5.88 17.4 9.37 32.3 22.4 47.2 35.3 1.92 1.64 3.88 3.24 5.89 4.77 0.69 0.59 1.39 1.18 2.1 1.79v2c0.59 0.26 1.18 0.52 1.78 0.79 2.35 1.28 3.89 2.63 5.78 4.52l2.05 2.05c0.73 0.73 1.45 1.46 2.19 2.21 1.14 1.13 1.14 1.13 2.29 2.29 1.6 1.6 3.19 3.2 4.78 4.81 2.42 2.43 4.85 4.86 7.27 7.28 1.56 1.56 3.11 3.12 4.66 4.68l2.18 2.18c3.98 4.02 7.81 8.14 11.5 12.4 2.23 2.58 4.56 5.06 6.89 7.56 4.21 4.57 8.22 9.25 12.1 14.1 1.93 2.39 3.87 4.76 5.83 7.12 6.63 7.99 13.2 16 19.4 24.3 1.38 1.83 2.77 3.66 4.17 5.49 6.99 9.21 13.6 18.6 20.1 28.2 0.42 0.61 0.83 1.22 1.26 1.85 9.45 14 18.4 28.2 27.1 42.6 0.47 0.79 0.95 1.58 1.44 2.39 13.9 23.2 26 48 36.2 73.1 0.41 0.99 0.81 1.98 1.23 3 16.8 41.6 28 84.3 32.8 129 0.09 0.72 0.17 1.45 0.25 2.19 0.66 6.06 0.93 12 0.96 18.1 0 0.95 0.01 1.91 0.02 2.9 0.01 3.07 0.02 6.15 0.02 9.23v3.19c-0.01 16.3-0.56 32.2-3.25 48.4-0.17 1.08-0.35 2.16-0.53 3.27-8.68 51.5-28.8 101-57.5 145-0.71 1.09-1.41 2.19-2.14 3.32-11.3 17.3-24.1 33.8-38.2 48.8-2.02 2.17-3.97 4.37-5.9 6.62-4.03 4.62-8.33 8.96-12.7 13.3-1.13 1.15-1.13 1.15-2.3 2.32-4.76 4.75-9.66 9.24-14.8 13.6-1.17 1.03-2.33 2.07-3.5 3.11-8.82 7.79-18 15-27.5 21.9-1.01 0.74-1.01 0.74-2.05 1.5-15.9 11.6-32.5 22-49.8 31.3-2.02 1.09-4.02 2.21-6.02 3.32-50.5 27.8-108 43.9-165 48.8-1.42 0.14-1.42 0.14-2.86 0.28-11.6 1.02-23.3 0.91-35 0.91-3.7 0-7.4 0.02-11.1 0.03-14.1 0.04-28-0.46-42.1-2.22-1.05-0.13-1.05-0.13-2.12-0.26-4.47-0.57-8.93-1.23-13.4-1.93-0.67-0.1-1.34-0.21-2.02-0.32-45.6-7.24-90.2-22.3-132-40.5-1.11-0.48-2.23-0.95-3.38-1.44-23.7-10.2-47.3-21.2-69.5-34.3-2.59-1.52-5.2-3.01-7.8-4.51-12-6.91-23.8-14-35.3-21.7-0.77-0.52-1.55-1.04-2.35-1.57-10.2-6.82-20-13.9-29.6-21.4-0.92-0.69-1.84-1.39-2.79-2.1-0.83-0.63-1.66-1.25-2.52-1.9-0.72-0.54-1.44-1.07-2.18-1.63-0.74-0.68-0.74-0.68-1.51-1.37v-2c-0.59-0.26-1.18-0.53-1.79-0.8-2.29-1.24-3.68-2.5-5.46-4.39-2.39-2.48-4.83-4.74-7.5-6.94-34-29.6-50.8-79.1-54.2-123-0.14-3.58-0.16-7.16-0.17-10.8 0-1 0-2-0.01-3.03-0.01-3.22-0.01-6.44 0-9.66v-3.34c0.02-16.5 0.35-32.8 2.18-49.2 0.13-1.21 0.26-2.41 0.39-3.66 4.74-43.5 13.9-85.7 27.6-127 0.36-1.09 0.71-2.18 1.08-3.3 14.2-43.3 33.6-85.5 56.9-125 0.53-0.89 1.06-1.78 1.6-2.7 20.6-34.8 44.1-67.4 69.9-98.5 2.03-2.46 4.02-4.96 6.01-7.46 4.23-5.18 8.77-10 13.4-14.9 2.87-3.03 5.68-6.09 8.4-9.25 3.49-4.01 7.15-7.8 10.9-11.6 0.66-0.66 1.31-1.32 1.99-2 1.39-1.38 2.77-2.76 4.16-4.14 2.09-2.1 4.19-4.2 6.28-6.3 1.36-1.35 2.71-2.7 4.07-4.06 0.61-0.61 1.23-1.23 1.86-1.87 4.32-4.3 8.82-8.34 13.4-12.3 0.6-0.51 1.2-1.03 1.81-1.56 2.21-1.9 4.42-3.78 6.63-5.67 3.02-2.58 6.03-5.17 9.02-7.79 7.9-6.9 16.1-13.3 24.6-19.5 1.95-1.43 3.88-2.87 5.81-4.31 12.6-9.4 25.7-18 39.2-26.2 0.62-0.38 1.24-0.75 1.88-1.14 33.9-20.5 71.7-38.6 111-44.9 0.67-0.11 1.33-0.21 2.02-0.33 4.31-0.67 8.64-1.21 13-1.67 1.58-0.19 1.58-0.19 3.2-0.37 46.8-4.52 90.8 10.6 130 34.6zm-307 84.2c-2.62 2.18-5.26 4.33-7.91 6.48-3.23 2.64-6.45 5.29-9.62 8-0.65 0.54-1.29 1.09-1.95 1.65-1.6 1.32-1.6 1.32-1.37 3.41-0.59 0.26-1.17 0.53-1.78 0.8-2.31 1.25-3.83 2.56-5.68 4.42-0.66 0.66-1.32 1.31-1.99 1.99-0.71 0.7-1.41 1.41-2.13 2.14-0.73 0.73-1.46 1.47-2.22 2.22-1.55 1.56-3.1 3.11-4.64 4.67-2.35 2.36-4.7 4.72-7.05 7.07-1.51 1.51-3.02 3.03-4.53 4.54-1.04 1.05-1.04 1.05-2.1 2.11-4.49 4.53-8.73 9.21-12.9 14-1.04 1.2-2.09 2.4-3.14 3.61-2.75 3.16-5.5 6.34-8.24 9.52-1.45 1.68-2.91 3.35-4.38 5.03-6.97 8.04-13.3 16.5-19.7 25-2.89 3.9-5.84 7.73-8.83 11.6-13.5 17.5-25.5 36.3-36.8 55.2-0.48 0.81-0.97 1.63-1.47 2.46-53.6 90.1-92.6 193-85.3 360 5.74 21.6 15.3 41.6 29.8 58.7 0.46 0.54 0.92 1.09 1.39 1.64 18.9 22.1 45.7 37.7 73.6 45.4 0.89 0.24 1.77 0.49 2.68 0.74 22.5 6.06 44.4 8.5 67.6 8.7 0.83 0.01 1.67 0.02 2.54 0.03 16 0.2 29.8-2.58 42-13.8 5.01-5.28 8.98-11.4 13.1-17.4 9.69-14 20.4-28.3 32.8-40 1.47-1.28 1.47-1.28 1.24-3.34 0.99-0.33 1.98-0.66 3-1v-2c0.58-0.25 1.16-0.5 1.76-0.75 2.56-1.43 4.12-3.04 6.12-5.19 21.5-21.9 49.9-37 80-42.8 27.4-5.34 44.5-19.4 63.7-38.8 2.04-2 4.09-3.86 6.29-5.68 4.6-3.93 8.6-8.4 12.7-12.8 3.99-4.33 8.09-8.52 12.3-12.6 4.62-4.55 8.78-9.28 12.8-14.4 2.82-3.43 5.83-6.65 8.87-9.88 5.45-5.8 10.6-11.8 15.5-18l2.76-3.42c15.2-18.9 30.1-38.2 43.2-58.6 0.65-1 0.65-1 1.31-2.02 10.8-16.8 21-33.9 29.7-51.9 0.79-1.62 1.6-3.23 2.42-4.83 3.51-6.89 6.64-13.8 9.49-21 0.42-1.08 0.85-2.15 1.29-3.26 10.4-26.7 17.8-53.6 21.8-82 0.12-0.77 0.23-1.55 0.35-2.35 8.29-58.4 1.05-132-28.4-184-0.53-0.96-0.53-0.96-1.08-1.95-4.88-8.72-10.3-16.5-16.9-24-0.74-0.85-1.48-1.7-2.25-2.58-2.21-2.51-4.47-4.97-6.75-7.42-0.69-0.75-1.39-1.5-2.11-2.27-25.5-26.5-64.9-45.2-102-46.9-1.36-0.02-2.72-0.04-4.08-0.06-1.12-0.01-1.12-0.01-2.25-0.03-77.1-0.81-145 37.2-203 85.7zm385 23.5c1.34 7.96 3.08 15.8 4.92 23.6 3.35 14.4 6.03 28.7 8.08 43.4 0.11 0.73 0.22 1.46 0.33 2.22 0.27 1.92 0.54 3.85 0.8 5.78 0.16 1.22 0.33 2.45 0.5 3.71 0.38 3.46 0.38 6.85 0.34 10.3-0.27 12.6-0.27 12.6 5.49 23.3 3.53 3.1 7.37 5.7 11.3 8.22 3.29 2.16 6.2 4.68 9.15 7.26 1.04 0.88 2.08 1.76 3.11 2.64 3.72 3.21 7.34 6.52 10.9 9.87 2.01 1.88 2.01 1.88 5.02 2.68v2c1.48 1.5 1.48 1.5 3.42 3.05 4.86 4.14 9.38 8.57 13.9 13.1 1.19 1.17 1.19 1.17 2.41 2.37l2.32 2.32c0.69 0.68 1.38 1.37 2.09 2.07 4.25 4.8 5.43 8.38 5.21 14.7-0.71 4.94-3.38 7.53-6.91 10.8-4.92 2.33-9.1 2.74-14.4 1.63-6.32-3.49-11.1-9.08-16.1-14.2-2.51-2.55-5.03-5.09-7.54-7.63-0.87-0.89-1.74-1.77-2.63-2.68-0.83-0.83-1.66-1.67-2.51-2.53-0.76-0.76-1.51-1.53-2.29-2.32-1.72-1.88-1.72-1.88-3.89-1.66v-2c-1.53-1.35-3.13-2.63-4.75-3.87-3.31-2.55-6.36-5.12-9.25-8.13-0.99 0.33-1.98 0.66-3 1-0.06 0.66-0.13 1.31-0.19 1.99-1.59 15.8-3.99 31.1-7.3 46.6-0.59 2.8-1.08 5.6-1.51 8.42 0.7 0.42 1.39 0.83 2.11 1.26 15.6 9.42 30.6 19.4 44.9 30.7l3.33 2.52c5.95 4.49 11.7 9.11 17.2 14.2 2 1.83 4.03 3.6 6.09 5.37 4.99 4.35 9.68 9 14.4 13.7 1.49 1.49 2.99 2.97 4.49 4.45 6.31 6.27 12 12.8 17.6 19.8 1.04 1.27 2.08 2.53 3.12 3.79 16.4 20.1 29.7 41.7 40.5 65.2 1.92 4.14 4.03 8.08 6.37 12h2c0.62-31.6 0.62-31.6-2-63-0.11-0.86-0.22-1.72-0.34-2.6-4.22-31.7-14-62.3-24.7-92.4-0.36-1.02-0.72-2.04-1.09-3.1-13.7-38.7-32.3-76.1-53.9-111-0.61-0.99-1.23-1.99-1.86-3.01-14.6-23.5-30.6-46.2-48.7-67.2-2.29-2.66-4.49-5.38-6.68-8.13-5.09-6.27-10.6-12.1-16.2-17.9-3.5-3.69-6.85-7.48-10.1-11.4-1.32-1.64-1.32-1.64-3.42-1.41zm-4 240c-0.71 1.82-0.71 1.82-1.43 3.67-7.02 17.8-14.8 35.3-23.6 52.3-0.37 0.73-0.74 1.46-1.12 2.21-12.7 24.8-27.9 48-43.9 70.8 1.5 3.9 3.56 5.27 7.06 7.44 8.35 5.38 16.1 11.5 23.9 17.6 1.25 0.96 2.5 1.93 3.74 2.89 10.6 8.23 20.9 16.8 30.8 25.8 1.81 1.64 3.62 3.26 5.45 4.87 0.98 0.87 1.97 1.74 2.98 2.64 1.34 1.18 1.34 1.18 2.71 2.39 3.77 3.79 5.78 6.89 5.79 12.3-0.16 4.76-1.18 7.46-4.44 11.1-3.58 3.32-6.54 4.35-11.3 4.69-8.83-0.34-14-6.83-19.8-12.8-3.19-3.08-6.68-5.79-10.1-8.56-2.59-2.13-5.04-4.34-7.49-6.62-6.09-5.55-12.7-10.3-19.4-15.2-2.39-1.79-4.76-3.62-7.11-5.47-11.4-9.7-11.4-9.7-24.9-15-0.76 1.06-0.76 1.06-1.54 2.13-4.76 6.47-9.74 12.6-15 18.7-3.15 3.62-6.21 7.29-9.21 11-3.24 4-6.66 7.66-10.4 11.2-2.47 2.46-4.72 5.06-6.99 7.69-8.14 9.4-16.8 18.2-25.6 27-2.29 2.29-4.57 4.58-6.86 6.87l-8.35 8.35c-0.56 0.55-1.11 1.1-1.68 1.67-1.44 1.31-1.44 1.31-3.44 2.31v2c-0.58 0.25-1.16 0.49-1.76 0.75-2.58 1.44-4.12 3.08-6.11 5.25-8.05 8.23-17.9 14.8-28.1 20v2c2.14 1.58 2.14 1.58 4.88 3.19 3.68 2.24 7.23 4.58 10.8 7.08 5.67 3.99 11.5 7.66 17.4 11.3 0.56 0.35 1.12 0.69 1.7 1.04 12.2 7.49 24.6 14.6 37.2 21.4 1.43 0.77 1.43 0.77 2.88 1.56 48.5 26.2 101 47.6 156 55 1.96 0.27 3.91 0.55 5.87 0.85 2.99 0.45 5.98 0.85 8.97 1.23 0.89 0.14 1.78 0.28 2.7 0.42 3.73 0.41 6.22 0.56 9.48-1.46 2.07-1.79 3.95-3.67 5.82-5.65 1.05-0.96 2.11-1.91 3.17-2.85 9.84-9.01 19.7-18.2 28.3-28.4 1.06-1.25 2.16-2.47 3.29-3.67 0.56-0.61 1.13-1.22 1.71-1.85 0.51-0.53 1.01-1.06 1.53-1.61 1.16-1.6 1.16-1.6 0.8-3.56-5.7-14.4-17.9-28.3-27.4-40.3-8.43-10.8-8.43-10.8-8.88-17.9 0.68-5.21 2.28-7.92 6.23-11.4 4.4-3.19 7.63-3.97 13-3.27 7.3 2.53 11 7.81 15.3 13.8 0.65 0.88 1.3 1.75 1.96 2.65 5.14 7 10.1 14.1 14.9 21.4 0.5 0.75 1 1.5 1.51 2.27 0.44 0.66 0.87 1.32 1.32 2 1.37 1.93 1.37 1.93 4.29 3.65 19.1-24.4 51.5-73.2 47.7-106-7.71-49.3-31.6-93.4-64.2-131-1.03-1.19-2.06-2.38-3.08-3.57-4.98-5.8-10.3-11.2-15.7-16.6-0.88-0.89-1.75-1.78-2.66-2.69-6.05-6.07-12.4-11.5-19.1-16.9-1.06-0.89-2.12-1.78-3.17-2.68-12.2-10.4-25.4-19.5-38.8-28.3-1.07-0.75-2.14-1.51-3.24-2.29-2.64-1.97-2.64-1.97-5.76-1.71zm-326 337c-1.11 1.39-1.11 1.39-2.25 2.81 17.5 14.4 36.6 26.2 56.8 36.4 0.78 0.4 1.55 0.8 2.35 1.21 1.46 0.75 2.94 1.49 4.41 2.22 4.89 2.5 8.18 5.09 10.4 10.3 1.35 5.75 0.97 9.64-1.94 14.8-2.78 4.23-6.37 4.9-11.1 6-8.12 0.01-15.7-4.68-22.7-8.37-0.99-0.53-1.99-1.05-3.01-1.59-16.1-8.58-31.2-18.4-45.9-29.2-1.54-1.15-3.08-2.29-4.63-3.43-0.87-0.65-1.74-1.3-2.64-1.97-1.96-1.58-1.96-1.58-4.11-1.4-1.23 1.68-2.38 3.42-3.5 5.19-14.7 22.6-32 40.9-59.5 46.8-5.36 0.89-10.6 1.2-16 1.32-0.84 0.02-1.67 0.04-2.53 0.06-2.64 0.06-5.28 0.12-7.92 0.18-1.79 0.05-3.59 0.09-5.39 0.13-4.39 0.11-8.78 0.21-13.2 0.31v2c19.4 9.8 38.9 18.9 59 27 1.28 0.52 1.28 0.52 2.59 1.06 90.2 36.8 194 43.6 328 4.32 16.2-6.87 32.1-14.3 47.2-23.4 0.85-0.51 1.7-1.01 2.57-1.53 2.66-1.6 5.3-3.22 7.93-4.84 0.82-0.51 1.64-1.01 2.49-1.52 0.76-0.48 1.51-0.95 2.29-1.45 0.67-0.41 1.35-0.83 2.04-1.26 1.94-1.61 2.72-3.1 3.68-5.4-0.75-0.15-1.49-0.29-2.26-0.44-37.6-7.36-73.5-18.6-109-33.6-0.81-0.34-1.62-0.68-2.46-1.04-9.23-3.89-18.2-8.16-27.2-12.7-2.66-1.36-5.33-2.71-7.99-4.06-18.9-9.59-37.1-20.2-54.9-31.6-2.54-1.63-5.1-3.23-7.65-4.83-9.97-6.34-19.6-13.2-29.3-20-0.57-0.41-1.15-0.82-1.74-1.24-4.1-2.94-8.03-6.04-11.8-9.33-18.8-11.3-60.1 28.5-71.7 42z" fill="#000100"/>
<path transform="translate(1233,748)" d="m0 0c1.08 0.47 2.15 0.95 3.26 1.44 13.4 6.29 24.6 15.9 34.7 26.6 0.98 1.01 0.98 1.01 1.98 2.03 35.1 37.2 43.2 93.2 43.2 142 0 2.92 0.02 5.83 0.03 8.75 0.06 17.4-1.23 34.3-4.91 51.3-0.26 1.23-0.52 2.45-0.79 3.72-10.8 49.4-32.6 96.6-61.5 138-0.43 0.62-0.85 1.23-1.29 1.87-13.6 19.7-28.1 39-44.4 56.6-3.09 3.44-5.9 7.07-8.7 10.8-0.52 0.59-1.05 1.19-1.59 1.8h-2c-0.27 0.6-0.54 1.19-0.82 1.8-1.17 2.17-2.32 3.6-4.05 5.34-0.57 0.59-1.15 1.18-1.75 1.78-0.63 0.63-1.25 1.26-1.9 1.9-0.65 0.66-1.31 1.32-1.98 2l-4.18 4.18c-2.1 2.09-4.18 4.19-6.26 6.3-23.9 24-50.7 37.5-82.8 47-32.1 9.46-58.7 26.9-75.6 56.5-3.37 5.89-7.24 11.1-11.7 16.2-0.69 0.91-1.39 1.83-2.1 2.77-0.63 0.73-1.25 1.47-1.9 2.23h-2v2c-23.5 20.4-51 28.8-82 27-26-2.29-49.9-15.4-67-35-31.2-39.4-36.6-95.4-31.4-144 1.26-10.2 3.3-20.2 5.41-30.3 0.21-1.02 0.42-2.04 0.64-3.09 12.2-58.4 32.5-117 60.4-170 0.47-0.88 0.93-1.77 1.41-2.68 7.44-14 15.2-27.8 23.6-41.3 0.49-0.8 0.99-1.61 1.5-2.43 13-21.2 27.5-41.5 43.5-60.6 0.42-0.5 0.83-0.99 1.26-1.5 2.23-2.66 4.47-5.31 6.72-7.95 1.92-2.25 3.82-4.51 5.72-6.78 6.75-8.03 13.8-15.6 21.3-23 1.77-1.75 3.53-3.5 5.29-5.26 5.73-5.72 11.5-11.3 17.7-16.5 1.04-0.9 2.09-1.8 3.13-2.7 23.5-20 48.6-37.8 75.9-52.3 0.64-0.35 1.28-0.69 1.95-1.05 18.9-10.1 39.2-18 60-23 0.73-0.18 1.45-0.35 2.2-0.53 26.9-6.26 56.6-3.61 81.8 7.53zm-151 57c-0.57 0.41-1.14 0.81-1.72 1.23-12.7 9.09-25 18.6-36.8 28.8-2.18 1.87-4.38 3.73-6.59 5.57-8.67 7.25-16.8 15-24.7 23-2.04 2.05-4.1 4.1-6.15 6.14l-3.91 3.91c-0.61 0.61-1.22 1.22-1.86 1.85-3.14 2.74-3.14 2.74-4.21 6.49-0.99 0.33-1.98 0.66-3 1-1.48 1.38-1.48 1.38-2.94 3.19-0.61 0.72-1.22 1.44-1.85 2.19-0.73 0.86-1.46 1.73-2.21 2.62-0.91 1.05-1.82 2.1-2.74 3.15-7.02 8.08-13.8 16.4-20.3 24.8-0.58 0.75-1.15 1.5-1.75 2.27-16.8 21.9-31.5 44.9-45.2 68.7-0.39 0.68-0.78 1.35-1.18 2.05-37.6 65.2-67.9 147-70.8 223-0.05 1.15-0.11 2.3-0.16 3.49-0.7 29.4 4.48 66.1 22.2 90.5 0.61 0.85 1.22 1.71 1.86 2.59 2.45 3.3 2.45 3.3 5.14 6.41h2l1 3c16.1 14.1 34.8 18 55.5 17.2 14.4-0.93 28.8-8.71 39.5-18.2v-2c0.99-0.33 1.98-0.66 3-1 5.24-5.91 9.4-12.5 13.3-19.4 4.66-8.03 10.4-14.8 16.7-21.6 0.46-0.5 0.92-1 1.4-1.52 20.5-22 47-35.1 75.6-43.2 22.7-6.37 45.5-15.8 62-33.3v-2c0.99-0.33 1.98-0.66 3-1v-2c0.87-0.39 0.87-0.39 1.77-0.78 2.41-1.32 4.05-2.77 5.98-4.72 0.61-0.61 1.23-1.22 1.86-1.84 1.6-1.55 1.6-1.55 1.39-3.66 0.99-0.33 1.98-0.66 3-1 1.44-1.39 1.44-1.39 2.88-3.19 3.38-3.99 6.91-7.81 10.5-11.6 4.66-4.99 9.11-10.1 13.4-15.4 2.07-2.55 4.18-5.06 6.32-7.55 5.13-5.99 10-12.1 14.6-18.5 1.42-1.95 2.86-3.89 4.3-5.83 15.7-21.3 29.6-44.1 41-68 0.94-1.95 1.91-3.88 2.88-5.82 11.1-22.5 18.5-46.8 23.8-71.3 0.3-1.37 0.3-1.37 0.6-2.76 3.15-15.4 4.03-30.8 3.96-46.4v-2.61c-0.11-33.6-3.93-68.7-19.3-99-0.4-0.87-0.8-1.73-1.21-2.62-10.2-21.9-28.7-38.1-51.1-46.6-43.9-14.5-94.9 5.34-131 31.2z" fill="#000100"/>
<path transform="translate(155 961)" d="m0 0c4.15 2.8 6.73 6.25 8.69 10.8 0.22 2.03 0.22 2.03 0.18 4.21-0.01 0.82-0.02 1.64-0.03 2.49-0.02 0.89-0.04 1.78-0.06 2.69-0.03 1.92-0.05 3.83-0.07 5.75-0.02 1.5-0.02 1.5-0.04 3.03-0.23 17.2-0.26 33.9 3.02 50.8 0.14 0.77 0.29 1.53 0.44 2.32 4.4 22.5 13.1 43.6 25.9 62.7 2.53 3.88 3.41 7.12 3.2 11.7-0.98 4.43-3.38 8.13-6.52 11.4-3.5 1.82-6.52 2.32-10.4 2.38-0.91 0.03-1.81 0.05-2.75 0.08-5.04-0.82-8.35-3.56-11.3-7.6-0.81-1.22-1.61-2.44-2.39-3.67-0.43-0.66-0.85-1.32-1.29-2.01-20.3-31.9-31-70-31-108 0-0.97-0.01-1.93-0.01-2.93-0.01-2.02-0.01-4.05-0.01-6.07 0-3.08-0.02-6.17-0.04-9.25v-5.94c-0.01-0.91-0.02-1.82-0.02-2.77 0.02-6.71 0.41-13 5.12-18.2 0.49-0.56 0.99-1.13 1.49-1.71 5.21-4.71 11.6-4.57 18-2.29z" fill="#000100"/>
<path transform="translate(242 1031)" d="m0 0c3.86 2.61 6.2 5.24 7.59 9.73 0.3 1.62 0.3 1.62 0.6 3.27 0.24 1.23 0.48 2.47 0.73 3.74 0.26 1.36 0.51 2.71 0.77 4.07 3.22 17.1 8.21 31.2 18.9 45.1 3.59 4.85 4.65 7.55 3.8 13.5-1.38 4.96-4.23 8.77-8.52 11.6-4.43 2.02-8.27 2.07-12.9 0.73-13.3-5.78-20.8-22.8-26.1-35.4-5.04-12.9-12.2-33.1-8.41-47.1 1.88-4.24 4.39-7.01 8.33-9.53 5.2-1.73 10.2-1.66 15.3 0.19z" fill="#000100"/>
<path transform="translate(1186 1451)" d="m0 0c3.61 2.77 5.7 5.7 7.2 9.96 0.75 5.82-0.01 9.39-3.38 14.2-3.68 4.01-7.83 5.51-13.1 6.27-6.02-0.86-10.1-2.77-13.9-7.57-2.45-4.61-3.28-8.75-2.56-13.9 1.75-3.25 1.75-3.25 4-6 0.6-0.75 1.2-1.49 1.81-2.25 6.08-4.87 13.5-4.49 20-0.71z" fill="#000100"/>
<path transform="translate(357 1080)" d="m0 0c5.03 2.84 7.61 5.78 9.79 11.1 0.89 5.31 0 9.54-3 14-3.14 3.46-5.9 5.65-10.4 7.06-5.24-0.09-10.1-0.96-14.2-4.42-3.86-4.41-5.65-8.21-5.32-14 0.69-4.85 2.48-8.18 5.94-11.6 5.24-3.69 11.2-4.5 17.2-2.12z" fill="#000100"/>
</svg>
